<svg width="515" height="515" viewBox="0 0 515 515" fill="none" xmlns="http://www.w3.org/2000/svg">
<g clip-path="url(#clip0_1_2)">
<path d="M85.2 415V403L97.2 401C105.467 399.667 110.8 397.533 113.2 394.6C115.867 391.4 117.2 385.667 117.2 377.4V231H81.6V225L92 207H117.2V200.6C117.2 186.2 120.133 172.6 126 159.8C132.133 146.733 140.267 135.267 150.4 125.4C160.8 115.267 172.267 107.4 184.8 101.8C197.6 96.2 210.667 93.4 224 93.4C234.4 93.4 243.733 95.4 252 99.4C260.533 103.4 264.8 108.733 264.8 115.4C264.8 119.933 262.4 123.933 257.6 127.4C253.067 130.867 248.133 131.267 242.8 128.6L212 114.2C208.8 112.867 205.733 112.2 202.8 112.2C196.133 112.2 188.933 115.4 181.2 121.8C173.467 127.933 166.8 136.6 161.2 147.8C155.867 158.733 153.2 171.4 153.2 185.8V207H221.2V213L210.8 231H153.2V373.4C153.2 382.467 154.8 389 158 393C161.2 397 166.933 399.533 175.2 400.6L193.2 403V415H85.2Z" fill="#FF4D00"/>
<path d="M426.25 266.95L388.1 415H356.25L314.25 274.3L271.9 415H242.85L205.05 266.95C203.65 261.583 202.483 257.85 201.55 255.75C200.85 253.417 199.917 251.9 198.75 251.2C197.583 250.5 195.833 250.033 193.5 249.8L174.25 247.35V237.55H267.35V247.35L248.1 249.8C244.367 250.267 242.267 251.317 241.8 252.95C241.333 254.35 242.15 259.017 244.25 266.95L271.55 372.3L311.8 237.55H342.6L384.25 378.25L412.6 266.95C414.7 259.017 415.517 254.35 415.05 252.95C414.583 251.317 412.483 250.267 408.75 249.8L389.5 247.35V237.55H457.05V247.35L437.8 249.8C435.467 250.033 433.717 250.5 432.55 251.2C431.383 251.9 430.333 253.417 429.4 255.75C428.7 257.85 427.65 261.583 426.25 266.95Z" fill="#FF9500"/>
</g>
<defs>
<clipPath id="clip0_1_2">
<rect width="515" height="515" fill="white"/>
</clipPath>
</defs>
</svg>
